<?xml version="1.0" encoding="utf-8"?>
<!-- Generator: Adobe Illustrator 25.4.1, SVG Export Plug-In . SVG Version: 6.00 Build 0)  -->
<svg version="1.1" id="gubbe2" xmlns="http://www.w3.org/2000/svg" xmlns:xlink="http://www.w3.org/1999/xlink" x="0px" y="0px"
	 viewBox="0 0 1794.5 2302" style="enable-background:new 0 0 1794.5 2302;" xml:space="preserve">
<style type="text/css">
	.st0{fill:#23080F;}
</style>
<g id="Layer_20">
	<path class="st0" d="M651.5,580.1c-12.1,5-24.3,9.8-36.6,14.3c-12.6,4.6-25.4,9.2-38.6,12c-10.8,2.3-15.6,1.7-13.9-1.4
		c1.7-3.1,9-7.7,20-12.7c13.7-6,27.8-11.2,42.2-15.4c3-0.8,5.9-1.8,8.7-3c7.1-2.9,5-3.8-2.5-3.3c-16.8,1.3-33.6,3.4-50.2,6.5
		c-17.6,3.1-34.8,7.6-51.7,13.4c-29.9,10.3-58.5,24.6-86.4,39.6c-31.6,17.6-62,37.2-91.1,58.8c27.1-0.5,55.2-0.8,81.8-6.4
		c6.7-1.3,7.6-0.2,2.9,3.8c-3.3,2.7-7.1,4.9-11.2,6.3c-14,5.1-28.9,6.7-43.8,7.9c-15.5,1.3-31.3,1.8-47,2
		c-64.5,53.7-118.2,119.2-149.7,197.7c-39.3,97.9-35.8,197.6-22.1,300.3c3.1,21.2,5,43.9,12.3,64.1c7,14.2,22.5,18.2,37.3,15.3
		c11.2-1.6,22.4-3.8,33.4-6.5c11-3,16.8,0.2,18.4,10.2c1.4,8.9-3.1,15.1-14,18.2c-6.1,1.6-12.3,2.5-18.5,2.7
		c-27.5,1.4-55.1-0.3-82.2-5.1c-26.2-4.8-51.6-13.5-75.2-25.9c-18.6-9.8-36-21.6-52.1-35.1c-4-3.4-5.9-5.2-9.7-8.7
		c-5.4-5-9.3-11.4-11.3-18.5c-2.5-8.3,3.2-5.6,19.5,6.7c12.8,9.7,20.9,11.5,21.4,7.5c2.2-17.9-6.7-41.2-10.5-60.3
		c-19.2-99.1-28.1-197,15.5-291.2c36.7-79.3,101.4-139.9,173.6-187c-9.5-3.3-18.8-7.3-27.7-12c-4.6-2.4-3-5.7,4.3-9.5
		c5.7-3,9.9-4,12.7-3.4s9.2,4.2,23.2,9.7c2.9,1.2,4.5,1.7,7.6,2.8c8.2-4.9,16.6-9.6,25-14.2c44.8-23.5,91.9-41.5,140-55.8
		c31.5-9.4,63.7-17.9,96.3-23.9c46.3-8.6,94.1-12.4,140.7-14.2c13.7-0.5,17.7,2.3,23.1,3.6S667.6,573.4,651.5,580.1z"/>
	<path class="st0" d="M736.7,660.4c-8.6,16-23.6,30.1-39.2,40.1c-16.1,10.3-35.2,18-54.3,18.8c-29.7,1.3-45.9-11-26.2-39.5
		c8.2-11.9,19.8-20.3,31.5-28.6c2.5-1.5,4.8-3.3,6.8-5.4c3.5-4.2,1.3-5.6-6.3-4.4c-30.5,5.2-56.4,29.5-77.4,50.5
		c-43.9,46.7-67.7,111.4-84.1,172c-9.4,38-16.2,76.4-19.1,115.5c-2.1,46-0.7,92.2,0.8,138.2c1.2,12.7,3.8,40.3,24,33
		c10.5-3.8,22.1-8.3,32.2-10.6c5.8-1.3,9.7,1.8,9.7,7.7c0.1,7.9-2.5,12.5-7.7,14c-6.9,2.1-10.2,3.3-16.9,5.9
		c-24.6,9.6-47.2,23.1-69.6,37c-12.1,7.6-24.5,15.7-36.7,23.6c-14.2,9.1-28.6,17.9-43.2,26.3c-12.2,6.9-24.6,13.3-37.2,19.4
		c-6.9,3.3-15,6.9-24.5,10.9c-8.1,3.3-13,1.3-14-5.9s4.3-12.5,14.1-16.9c17.3-7.7,41.5-19.3,49-37.7c8.7-21.4,2.5-52.5,0.6-76
		c-6.6-76.6-9.2-151.2,8-226.7c14.1-61.7,39-120.6,75-172.7c9.1-13,22.6-27.4,26.9-41.9c1.6-5.4-6.4-6.8-23.5-3.5
		c-13.8,2.7-21.8,3.8-23.3,3.7s-0.5-1.8,3-4.9c3.4-3.1,7.6-5.2,12.1-6.2c5.2-1.1,10-2.3,14.5-3.4c6.8-1.7,10.1-2.5,16.8-4.3
		c53.9-14.4,104.9-39.1,156.6-59.6c-8.5,9.8-17.4,19.2-26.1,28.8c-9.6,10.6-18.3,21.8-26.8,33.2c23.7-22.8,49.1-43.8,78.4-58.9
		c19.3-10,41.1-17.5,62.1-19c12.5-0.9,30.8-2.6,38.9,9.6S742.5,649.4,736.7,660.4z"/>
	<path class="st0" d="M1182.8,1161.1c-1.6,10.2-11.5,17.9-19.9,22.9c-41.7,25-84.2,46.9-127.8,68.4c-21.3,10.5-41.1,24.2-57.5,41.5
		c-4,4.1-7.3,6.1-10.1,5.8c-2.2-0.2-2.8-4.5-1.6-13c1.6-11.9,3.2-23.9,4.8-35.8c1.4-10.9,2.8-21.8,4.2-32.7c1.2-9.6,2-18.1,2.3-25.6
		c-28.5,42-72.5,97-129.8,71.5c-46.1-20.5-79.9-67.2-99.6-112.2c-19.3-49.7-15.7-107.3-11.3-159.3c4.4-39,12-77.4,20-115.8
		c5.9-27.8,12.5-55.4,19.7-82.8c11.9-45,26.1-89.9,45-132.6c5-11.4,6.2-18.6,3.6-20.9c-7.2-6.5-20.5-8.1-31.1-10.2
		c-16.3-3.2-23.3-5.1-21.2-7.9c2.4-3.2,7.8-4.4,16.5-3.4c4.1,0.5,6.2,0.8,10.4,1.3c13.5,1.9,26.8,5.2,40,8.3
		c11.8,2.8,23.6,5.7,35.5,8.4c1.2,0.3,7.6,1.2,18,3.2c13.9,2.8,27.6,6.8,40.8,12c5.1,1.9,7.6,2.9,12.3,4.8
		c-5.8,31.4-11,62.9-16.3,94.4c-8.2,48.9-16.5,97.9-26.5,146.4c-2.9,14.2-6.8,38.9-10.4,49.4c-12.2,71.4-28.4,153.1-15.8,224.2
		c3.5,20,10.1,47.9,32.6,55.3c27.7,9.1,48.3-28.1,59.6-46.7c6.4-10.9,10.8-22.8,13-35.1c5.5-30.9,7.7-62.6,11.7-93.9
		c12-84.8,24.2-169.2,24.9-255c0-28.2,0.1-57-4.3-84.9c-1.6-10.3-6.2-16.2-13.8-19.3c-5.6-2.3-8.5-3.5-14.4-6.1
		c-4.9-2.1-8.1-8-7.2-9.1c2.1-2.5,19.4,4.5,27,7.6c23.6,9.8,46.2,12.3,71.6,7.7c18.3,31.5,28.7,66.2,36.4,101.7
		c19.3,98.4,3,195.7-5.3,294.2c-2.6,28-7.5,57.1-7,84.7c0.1,7.9,5.1,12.2,13.4,10.7c18.9-3.6,38-17.1,55.3-26.5
		C1179.8,1151.7,1184,1153.5,1182.8,1161.1z"/>
	<path class="st0" d="M1436.7,1142.7c-2,6.8-5.6,9.6-10.8,8.6c-39.9-6.6-77.9-4.8-117.4,3.8c-31.7,8-61.8,19.6-91.5,33.2
		c-4,1.9-9,4.3-15.1,7.4c-5.4,2.7-8.5,4.3-9.2,4.7c-8.2,4.2-12.4,2.7-11-2.8c2.2-8.6,17-16.1,25-20.3c14-7.2,33.5-15.8,41.8-28.9
		c10.1-16,11.4-40,14-59.5c15-123.9,40.8-271-30.8-382.8c-8.2-11.9-18.9-28.9-32-32.1c-10.5-2.5-25,5.4-35.7,10.4
		c-10.2,4.8-16.1,7.2-18,7.6s-4-0.9-6-3.4c-2.4-3-0.1-5.9,6.6-9.2c43.9-21.7,86.6-45.9,127.9-72.4c20.7,10.4,39.2,24.2,56.7,39.2
		c35.1,35.2,58.4,75.6,72.9,123.2c23.4,90.9,6.1,186.8-9.9,277.7c-3.7,20.8-15.2,53.4-7.5,69.4c5,10.5,30.9,12,43.3,14.1
		C1436.4,1131.7,1438.7,1135.8,1436.7,1142.7z M1135.8,565.7c10.1-0.5,16.2,1,16.1,4.1s-6.5,7-19,11.5c-14.2,5-28.7,9-43.4,12
		c-12,2.6-24.2,5-36.6,5.7c-8.5,0.5-10.8-0.8-7.6-3.8s5.9-9.2,18-14c12.9-5.2,27.2-5.6,40-9.6
		C1113.8,568.2,1124.8,566.2,1135.8,565.7z"/>
	<path class="st0" d="M1793.6,1197.5c-5.3,17.7-20.6,31.3-34.1,43.3c-46.8,37.8-106.5,53.7-160,18.9c-40.4-26.2-71.7-72.6-75.3-121
		c-0.9-15.7-1.5-31.3,1.4-46.7c6.5-33.9,15.1-67.7,21.4-101.9c4.6-25.6,9.2-51.2,12.2-77c3-21.2,4-42.6,2.9-63.9
		c-1.6-10.5-3.4-21-5.9-31.3c-8-39.7-22.2-75.2-44.5-109c-16.9-23.4-36.6-44.5-58.7-62.9c-7.3-6-15.4-12.2-23.8-15.5
		c-8.7-3.4-19.1-4.8-28.8-5.9c-10.6-1.2-24.3-1.8-33.3-7.2c-3.5-2.1-2.6-4,2.3-4c6,0,41.7,5.4,46.5-3.2c4.9-8.8-22.5-16.3-25.8-17.6
		c-6.2-2.2-8.3-2.9-6.4-2.4c2.3,0.6,8.4,2.4,18.4,5.8c38.7,13.4,75.1,32,111.5,49.7c13.7,6.7,28.9,11.7,43.7,15.6
		c10.4,2.7,21.1,5.9,31.9,6c-0.1-0.3,0.2-0.4,0.9-0.3c1.5,0.3,5,2,10.7,5.2c13.1,7.4,17,11,11.7,9.9c-20.3-4.1-41-9.6-60.9-15.7
		c-2-0.6-5.4-1.7-10.4-3.3c7.8,5.2,15.5,10.8,22.9,16.5c84.4,67,134.9,159.9,131.9,269c-1.6,57.6-17.8,116.1-27.8,171.1
		c-6.1,33.9-16.2,102.5,26.7,118c23.8,8.6,53.7-17.4,71-31.2c8-6.5,19-18,26.9-18.1C1794.4,1188.5,1795.3,1192,1793.6,1197.5z"/>
</g>
<g id="Layer_19">
	<path class="st0" d="M491.7,1680.8c3.5,8.8-1,19-3.9,27.3c-12.2,30.8-41.1,48.9-71.2,58.9c-29.8,9.9-58.4,6.1-83.5-13.4
		c-8.9-7.4-17.8-14.8-25-23.9c-15.8-19.7-30.1-40.6-44.5-61.3c-9.9-14.5-19.7-29-29.4-43.6c-7.1-12.1-14.4-24.1-21.8-35.9
		c-5.3-7.6-7.9-11.4-13-19.1c-16.1-26.5-31.6-53.3-46.4-80.4c-11.3-21.1-22.2-42.4-32.7-64c-5.1-10.6-9.3-17.8-12.9-20.7
		c-7.3-6.1-16.4-11.2-24.7-16.5c-8.9-5.6-20.2-13.5-24.8-22.9c-1.8-3.8,0-4.8,4.2-2.1c43.1,27.6,83.8,17.2,116.7-21.4
		c4.7-6.5,9.2-9.8,13.1-9.7c4.8,0.1,8.2,3.5,10.2,10.6c6.1,21.1,13.7,60.8,31.7,70.7c15.1,8.3,42.5-0.8,60-6.2
		c22.6-7,46.3-15.9,66.5-29.3c1.2-1.1,2.5-2,4-2.8c2.8-1.3,4.5-0.3,5.3,3.2c1.8,8-1.7,14-10.6,18c-32.8,14.9-68.2,28.3-103.7,34.2
		c-2.9,0.5-8.1,1.2-15.3,1.8c2.5,6.3,3.8,9.5,6.4,15.8c35.1,83.5,78,170,132,239.8c15.9,20.6,42.1,42.9,69.7,36.4
		c14.4-3.4,22.2-20.4,28.6-32.8c4.8-9.4,8.6-14.3,10.7-14.7C489.1,1676.6,490.5,1677.9,491.7,1680.8z"/>
	<path class="st0" d="M877.5,1769.6c0.6,5.7-2.9,12.8-10.4,21.2c-21.4,26.6-53.3,29.7-83.3,20.9c-22.5-6.6-43.6-21-58.9-39.4
		c-18.9-22.8-31-51-40.8-78.8c-13.2,40.5-36,67.4-81.7,59.2c-23.7-4.2-46.2-15-65-30.1c-20.2-16.2-36.5-37.1-46-61.3
		c-37.1-95,65.4-156.1,149.3-149.2c-1.8-9.2-2.8-13.7-4.6-22.9c-8.6-43.7-13.5-92.7-31.3-133.9l-1.9-5.4
		c-13.4-31.5-42.9-55.8-78.5-45.3c-18.4,5.4-35.1,19.3-44.5,35.9c-6.9,12.1-13.7,28.1-11.1,42.2c1.1,6.1,9.3,6.8,23.6,2.9
		c23.6-6.5,36.8,13.5,41.1,33.9c2.7,12.9,1.6,27-5,38.7c-6.4,11.2-17.7,18.4-29.7,21.8c-14.8,4.1-31.7,3.6-45.9-2.4
		c-13.5-5.7-23.4-18.3-27-32.2c-8-30.6,7.9-61.2,23.6-86.6c22.1-35.6,55.9-63,96.7-71.8c60-12.9,132.1,20.1,171.5,66.1
		c30.4,35.5,42.4,83.8,47.9,129.6c7.5,62,16,123.9,25.3,185.7c3.3,21.4,6,43,10.9,64.1c4.5,18,12.6,48.4,32.8,53.1
		c13.3,3.1,23.7-9.2,32.1-18c2.4-3,4.4-4.3,6-4C875.5,1764,877.1,1766,877.5,1769.6z M655,1579.8c-3.9-17.8-7.7-35.7-11.4-53.6
		c-62.3-3.2-75.5,55.2-61.4,104.2c9.4,32.5,27.6,70.1,62.9,79.8c15.6,4.3,25.3-7.5,25.4-22.5C670.7,1653.2,662.4,1614.5,655,1579.8
		L655,1579.8z"/>
	<path class="st0" d="M1212.6,1418.8c-2.3,16.8-10.2,33.5-20,47.5c-8.9,12.7-21,22.9-35.1,29.4c-26.1,11.9-48.2,6.7-45.4-25.3
		c1-11,4.7-21.9,8.5-31.9c3.3-8.8,8.5-19,9-27.6c0.5-8.8-1.3-20.4-11.9-25.4c-11.9-5.6-26.1,0.1-37.1,4.3
		c-83.8,31.9-88.5,135.7-87.4,214.6c0.7,51.9,2.8,115.1,30.7,158.6c10.5,16.4,26.8,34.2,49.2,28c33.8-9.2,56.5-57.8,72.6-85
		c3.8-6.8,6.9-10.6,9.1-11.3c1.8-0.6,2.3,1.5,1.3,5.9c-5.2,23.8-21.2,45.9-34.3,66.3c-19.7,29.2-45.5,64.8-83,70.4
		c-45.4,6.8-81.5-26.7-107.2-59.3c-37.4-47.4-60.8-108.8-65.6-168.8c-4.5-56.6,5.9-112.9,50.2-152.9
		c42.9-38.8,101.4-54.5,154.3-74.2c33.2-12.3,75-34.6,111.5-25C1211.6,1364.9,1216.1,1393.2,1212.6,1418.8z"/>
	<path class="st0" d="M1594.1,1619c-40,64.2-106.6,108.5-176.2,136.8c-44.3,17.9-94.7,36.9-142.2,33.9c-42.9-2.8-59-25.9-69.2-66.2
		c-14-55.2-11.4-113.6,0-169.5c14.6-71.8,47.2-142.8,97.7-196c46.7-49.3,105.3-77.6,170.3-49c57.2,25.2,107.9,88.9,133.7,145.7
		C1634,1512.1,1627,1566.1,1594.1,1619z M1450.8,1575.7c25.8-52.5,56.1-112.8,57.4-172.7c0.7-30.6-10.7-68-40.8-81.5
		c-30.7-13.8-58.6,16.5-74.2,38.4c-33.1,46.3-51.9,104.4-70.1,158.6c-22.3,66.6-50.1,137.5-57.6,206.6c-1.7,15.4-5.5,48.7,19,49.6
		c32,1.1,58.6-29.1,76.5-51.4C1396.7,1678.8,1425.5,1627,1450.8,1575.7z"/>
</g>
<g id="Layer_21">
	<path class="st0" d="M809.2,2131.7c1,40.8-9,87.5-47.2,110.5c-23.6,14-46.1,4.2-65.6-9.6c-17.3-12.2-32.3-30.2-47.3-46.1
		c-8.6-9.1-17.1-18.5-26.1-26.8c-7.4-6.8-15.1-13.2-23.2-19.1c-1.3-1-2.5-2.1-3.5-3.4c-2-2.2-3.8-4.5-5.5-6.9
		c-1.6-2.3-5.8-8.5-12.5-18.5c-53.8-80.2-108.5-160.5-157.8-243.5c-0.8-1.3-2.6-4.4-5.4-9.2c-2.7-4.6-5-8.6-7-12.2
		c-4.9-8.6-7.1-12.5-12.4-21.4s-10.6-13.7-16.1-14.7s-14.8,1.3-26.2,6.7c-9.6,4.6-14.4,5.8-15.9,3.8s-0.3-4,3.8-6.2
		c42.7-22.3,86.6-42.4,131.1-60.9c2.2,3.7,3.4,5.6,5.5,9.4c27.3,60.8,48.1,124.7,74.2,186.1c14-27.4,47.3-25.3,72.5-20.2
		c52.1,10.6,96.4,43.8,131.7,83.2C786.5,2046.5,808,2085.9,809.2,2131.7z M702.7,2093.6c-12.5-52.3-36.5-140.3-99.2-152.9
		c-16.2-3.3-36.5-0.4-40,18.7c-1.1,6.1,0,13.6,3.2,22.4c9.4,26.1,21.3,51.7,32.3,77.2c5.6,13,11.3,25.9,16.9,38.8
		c12.7,28.8,25.7,58.1,42,85c9.1,15,20.9,31,35,40.2c12.4,8.1,28.1,8.6,28-12.1C720.7,2174.4,711.6,2130.8,702.7,2093.6
		L702.7,2093.6z"/>
	<path class="st0" d="M1053.1,2222.4c-1.1,3.7-5.4,10.1-12.6,19c-16,19.3-34.4,39.6-59.1,47c-12.8,3.8-21.3,1.6-24.7-4.9
		c-5.8-11.1-3.5-26.8-1.9-39.3c-14.9,24.1-35.1,56.9-66.6,57.8c-12.8,0.4-23.3-8.7-29.4-19.3c-8-13.9-11.2-31.6-10.6-47.6
		c2.6-66.4,76.6-82.9,129.1-98.9c1.2-5.5,1.8-8.2,3-13.7c5.4-25.4,13.6-53,12.8-79.2c0-1.2,0-1.9,0.1-3.1
		c-0.7-23.4-20.1-26.2-39.1-24.7c-12.8,1-26.5,4.2-36.2,12.6c-6.8,5.8-15.2,13.1-16.3,23.1c-0.4,4.2,4.9,7.2,15.2,7.9
		c14.8,1,21.5,13.3,18.7,27.1c-1.8,8.9-5.6,17.3-12.2,23.8c-6.3,6.4-14.9,9.8-23.9,9.5c-11.2-0.3-21.7-5.1-29.2-13.4
		c-7.4-8.3-11.4-19.1-11.1-30.2c0.6-21.1,18-35.9,34.1-46.1c22.4-14.2,50.8-18.7,77.3-22.1c23.3-2.9,66.9-15.9,85.1,1.2
		c15.1,14.2,5.2,47.6,1,65.3c-10.1,38.2-20.4,76.4-31,114.6c-3.6,13-7.4,25.9-10.5,39.1c-1.1,7.4-3.8,26,6.1,23.1
		c9.5-2.8,18.3-16.4,25.7-25.5c2.3-3,4-4.8,5-5.3C1053.3,2219.4,1053.8,2220.1,1053.1,2222.4z M968.3,2176.9
		c2.3-10.7,4.7-21.5,7-32.2c-35,13.9-59.1,39.4-64.3,76.6c-1.6,11.7-6.5,46.8,14.8,44.9c10.8-0.9,18.1-12.6,22.2-21.7
		C957.6,2223.3,963.1,2199.7,968.3,2176.9z"/>
	<path class="st0" d="M1390.6,1901.4c-7.6,10.3-18.3,19.5-28.8,27.6c-10.3,8.1-21.6,14.8-33.6,20.2c-11.8,5.1-36.1,10.9-21.4-11
		c5.8-8.6,14.1-17.1,22.1-24.6c1.8-1.5,3.5-3.2,4.8-5.1c2.1-3.5-0.4-4-7.4-1.2c-24.2,9.6-43.4,29.5-59.4,49.8
		c-22,28.9-37.2,63.6-53.4,95.8c-7.8,15.5-15.6,30.9-23.5,46.3c-9.7,18.8-19.4,37.6-29.2,56.3c-6.1,11.6-4.4,13.7,5,5.3
		c7.1-6.3,13.9-13.1,20.5-19.7c3.7-3.7,4.9-4.4,3.3-1.9c-2.4,3.6-5.1,6.9-8.1,10c-4.3,4.6-6.5,6.8-10.8,11.1
		c-14.8,14.9-30.3,29-46.4,42.6c-7.7,6.4-15.6,12.5-23.5,18.5c-8.2,6.1-16.6,12-25.2,17.5c-7.7,5-11.6,7.4-19.2,11.7
		c-3.3,1.9-7.2,4.1-11.4,6.3c-3.6,1.9-5,1.4-4-1.6s3.7-5.5,8.3-8c9.7-5.2,20.4-11.7,27.1-20.2c7-8.8,11.2-21.5,15-32.5
		c20.5-58.8,40.2-118,59.1-177.3c2.5-9.2,6.8-20.2,3-27.7c-1.8-3.6-11.9-3.3-24.6,0.6c-10.1,3.1-14.8,4.4-15.9,4.4s-1.3-1.2-0.6-3.6
		c0.7-2.5,2.6-4.5,5.1-5.2c3.2-1.2,6.3-2.4,9.4-3.5c4.6-1.8,7.1-2.7,12.1-4.7c47.1-18.4,91.5-44.6,136.3-67.8
		c0.8,4.9-0.8,12.2-5.8,23c-4.1,8.8-8.2,17.5-12.3,26.2c16.9-20.5,34.8-40.8,56-56.3c15.2-11.1,34.9-19.8,52.4-24.7
		c9.5-2.6,28.6-7.3,33.8-2C1403.9,1880.8,1395,1895.3,1390.6,1901.4z"/>
</g>
<g id="Layer_22">
	<path class="st0" d="M1502.5,410.1c-62.6,56.7-175.4,81.7-198.7,88.2l-0.4,0.1c-49.3,13.9-100.4,20.3-151.6,18.8l-468.2-12.9
		c-5.2-0.1-10.4-0.6-15.6-1.3c-26.3-3.6-12.1-2.7-66.9-8.1c-80.2-8-199.8-26.3-258.8-84.6C224.8,294.1,102.1,185.1,307,245.8
		s482.5,254.5,426.8,130.2S615.2,269.5,645.6,69.8S757.3,160.5,775,181.2c17.7,20.7-4-24.3,13.1-76.7c18.5-56.6,63.8-95.8,96,73.7
		C914,336,918.6,343.9,967,353s78.3-13.5,114.5-99s203.6-319.2,217-219.1c37.1,277.5-121.1,333.1-150.1,386.7s176.7-54.2,194.1-68.5
		c20.9-17.1,200.3-184.2,211.3-149.7S1565,353.5,1502.5,410.1z"/>
</g>
</svg>
