<svg id="gubbe2" xmlns="http://www.w3.org/2000/svg" xmlns:xlink="http://www.w3.org/1999/xlink" viewBox="0 0 1794.51 2301.99"><defs><style>.cls-1{fill:#fff;}.cls-2{fill:url(#linear-gradient);}</style><linearGradient id="linear-gradient" x1="802.11" y1="607.07" x2="2164.5" y2="607.07" gradientUnits="userSpaceOnUse"><stop offset="0" stop-color="#f1f1f1"/><stop offset="0.5" stop-color="#fff"/><stop offset="0.52" stop-color="#fefefe"/><stop offset="0.73" stop-color="#f4f4f4"/><stop offset="1" stop-color="#f1f1f1"/></linearGradient></defs><g id="Layer_20" data-name="Layer 20"><path class="cls-1" d="M1256.58,928.48c-12.06,5-24.3,9.81-36.55,14.26-12.63,4.58-25.43,9.19-38.59,12-10.82,2.32-15.57,1.71-13.91-1.36s9-7.71,20-12.71a342,342,0,0,1,42.18-15.38,84.13,84.13,0,0,0,8.7-3c7.06-2.91,5-3.8-2.51-3.29a475.55,475.55,0,0,0-50.19,6.46A343.52,343.52,0,0,0,1134,938.86c-29.89,10.28-58.52,24.63-86.43,39.61a829.85,829.85,0,0,0-91.07,58.77c27.14-.5,55.16-.8,81.82-6.38,6.66-1.3,7.59-.15,2.92,3.77a37,37,0,0,1-11.23,6.28c-14,5.09-28.9,6.65-43.77,7.89-15.53,1.29-31.31,1.77-47,2-64.52,53.7-118.2,119.23-149.66,197.66-39.27,97.87-35.83,197.64-22.06,300.32,3.07,21.18,5,43.86,12.29,64.13,7,14.23,22.52,18.21,37.3,15.33a334.72,334.72,0,0,0,33.36-6.51c11-3,16.84.25,18.37,10.24,1.36,8.9-3.08,15.08-14.05,18.16a80.35,80.35,0,0,1-18.54,2.68,367.6,367.6,0,0,1-82.24-5.1,265.2,265.2,0,0,1-75.23-25.9,291.44,291.44,0,0,1-52.06-35.09c-4-3.45-5.9-5.21-9.7-8.73a40.78,40.78,0,0,1-11.34-18.5c-2.51-8.32,3.24-5.6,19.53,6.71,12.8,9.67,20.9,11.5,21.39,7.5,2.21-17.88-6.66-41.21-10.49-60.26-19.23-99.06-28.09-197,15.47-291.19,36.7-79.35,101.42-139.87,173.62-187a187.48,187.48,0,0,1-27.67-12c-4.6-2.42-3-5.68,4.29-9.48,5.71-3,9.91-4,12.68-3.37s9.23,4.21,23.25,9.68c2.94,1.15,4.46,1.71,7.63,2.79q12.35-7.33,25-14.16c44.8-23.46,91.87-41.46,140-55.8,31.5-9.38,63.73-17.9,96.26-23.86,46.27-8.6,94.07-12.42,140.69-14.23,13.72-.54,17.74,2.26,23.05,3.61S1272.7,921.76,1256.58,928.48Z" transform="translate(-605.1 -348.35)"/><path class="cls-1" d="M1341.75,1008.72c-8.55,16-23.55,30.12-39.25,40.12-16.11,10.26-35.17,18-54.31,18.79-29.7,1.26-45.92-11-26.19-39.54,8.23-11.91,19.75-20.3,31.53-28.56a32.24,32.24,0,0,0,6.77-5.37c3.46-4.18,1.3-5.64-6.26-4.36-30.52,5.21-56.45,29.45-77.44,50.54-43.87,46.68-67.69,111.36-84.06,172-9.39,38-16.2,76.38-19.08,115.47-2.09,46-.74,92.18.82,138.16,1.16,12.67,3.77,40.27,24,33,10.47-3.75,22.06-8.31,32.19-10.62,5.78-1.32,9.67,1.76,9.72,7.68.06,7.91-2.53,12.47-7.67,14-6.86,2.08-10.23,3.26-16.88,5.86-24.56,9.62-47.25,23.1-69.59,37-12.08,7.63-24.54,15.74-36.7,23.56q-21.29,13.68-43.18,26.33c-12.17,6.93-24.59,13.3-37.17,19.45-6.87,3.27-15,6.94-24.54,10.86-8.12,3.31-13,1.29-14-5.9s4.27-12.5,14.11-16.86c17.35-7.7,41.54-19.31,49-37.69,8.68-21.43,2.54-52.49.6-76-6.6-76.63-9.23-151.16,8-226.66,14.1-61.66,39-120.6,75-172.71,9.14-13,22.58-27.41,26.9-41.86,1.61-5.39-6.38-6.77-23.53-3.48-13.84,2.66-21.82,3.82-23.32,3.74s-.51-1.76,2.95-4.9a26.17,26.17,0,0,1,12.12-6.17c5.16-1.14,10-2.27,14.5-3.37,6.77-1.65,10.13-2.51,16.8-4.28,53.9-14.36,104.93-39.07,156.62-59.6-8.54,9.75-17.37,19.24-26.07,28.85-9.55,10.61-18.27,21.8-26.78,33.25,23.68-22.75,49.13-43.78,78.37-58.86,19.28-10,41.07-17.53,62.14-19,12.48-.87,30.76-2.55,38.93,9.57S1347.64,997.74,1341.75,1008.72Z" transform="translate(-605.1 -348.35)"/><path class="cls-1" d="M1787.93,1509.42c-1.56,10.23-11.47,17.89-19.92,22.95-41.73,25-84.15,46.89-127.77,68.4-21.3,10.51-41.1,24.16-57.49,41.52-4,4.1-7.34,6.06-10.13,5.85-2.24-.16-2.76-4.52-1.62-13q2.43-17.89,4.76-35.79,2.13-16.33,4.18-32.67c1.2-9.56,2-18.1,2.31-25.61-28.51,42-72.46,97-129.8,71.49-46.12-20.54-79.92-67.24-99.61-112.25-19.28-49.65-15.68-107.35-11.29-159.29,4.37-39,12-77.44,20-115.82,5.89-27.76,12.46-55.42,19.71-82.79,11.91-45,26.12-89.87,45-132.56,5-11.42,6.21-18.6,3.62-20.94-7.2-6.5-20.5-8.13-31.07-10.19-16.31-3.16-23.26-5.08-21.19-7.89,2.36-3.22,7.76-4.44,16.54-3.42,4.14.49,6.23.75,10.45,1.35,13.48,1.86,26.76,5.21,40,8.28,11.8,2.75,23.64,5.73,35.46,8.37,1.18.26,7.62,1.2,18,3.25a248.09,248.09,0,0,1,40.82,12c5.09,1.91,7.55,2.89,12.3,4.84-5.82,31.38-11,62.87-16.3,94.35-8.18,48.91-16.47,97.87-26.47,146.42-2.93,14.21-6.76,38.89-10.45,49.42-12.25,71.39-28.43,153.1-15.82,224.22,3.54,20,10.09,47.94,32.57,55.32,27.69,9.09,48.31-28.06,59.57-46.72a107.62,107.62,0,0,0,13-35.13c5.51-30.9,7.65-62.62,11.68-93.86,12-84.81,24.15-169.19,24.91-255,0-28.17.06-57-4.3-84.92-1.61-10.35-6.15-16.19-13.85-19.29-5.63-2.27-8.48-3.5-14.39-6.07-4.92-2.14-8.12-8-7.23-9.12,2.1-2.54,19.44,4.49,27,7.61,23.61,9.83,46.17,12.26,71.61,7.65,18.31,31.49,28.74,66.24,36.39,101.66,19.33,98.41,3,195.66-5.29,294.18-2.62,28-7.49,57.1-7,84.71.14,7.93,5.06,12.22,13.4,10.66,18.9-3.55,38-17.12,55.35-26.49C1784.86,1500.05,1789.08,1501.82,1787.93,1509.42Z" transform="translate(-605.1 -348.35)"/><path class="cls-1" d="M2041.8,1491c-2,6.82-5.61,9.61-10.81,8.64-39.94-6.55-77.9-4.76-117.39,3.8-31.73,8-61.79,19.56-91.52,33.22-4,1.89-9,4.31-15.14,7.36-5.42,2.71-8.53,4.33-9.21,4.68-8.23,4.25-12.45,2.71-11-2.75,2.23-8.64,17-16.12,25-20.29,14-7.25,33.46-15.76,41.77-28.93,10.09-16,11.38-40,14-59.46,15-123.86,40.85-271-30.83-382.85-8.17-11.9-18.9-28.93-32-32.07-10.52-2.53-25,5.35-35.68,10.4-10.16,4.81-16.07,7.24-18,7.56s-4-.87-6-3.44c-2.37-3-.11-5.89,6.63-9.21A1330,1330,0,0,0,1879.5,955.3c20.67,10.37,39.15,24.19,56.67,39.16,35.13,35.25,58.44,75.62,72.91,123.19,23.41,90.91,6.07,186.84-9.86,277.72-3.69,20.82-15.19,53.38-7.53,69.38,5,10.49,30.87,12,43.29,14.14C2041.46,1480,2043.77,1484.17,2041.8,1491ZM1740.9,914c10.09-.49,16.15,1,16.08,4.11s-6.48,7-19,11.46a338.91,338.91,0,0,1-43.41,12c-12,2.56-24.22,5-36.55,5.67-8.51.46-10.78-.76-7.62-3.75s5.93-9.2,18-14c12.88-5.15,27.25-5.6,40-9.64A130.44,130.44,0,0,1,1740.9,914Z" transform="translate(-605.1 -348.35)"/><path class="cls-1" d="M2398.7,1545.86c-5.34,17.73-20.63,31.29-34.12,43.34-46.83,37.78-106.51,53.65-160,18.92-40.37-26.22-71.67-72.58-75.32-121-.95-15.71-1.54-31.28,1.42-46.74,6.5-33.9,15.13-67.72,21.43-101.87,4.62-25.59,9.21-51.15,12.16-77a329.57,329.57,0,0,0,2.85-63.94c-1.65-10.53-3.38-21-5.94-31.34-8-39.71-22.19-75.18-44.48-109A344.68,344.68,0,0,0,2058,994.29c-7.34-6-15.42-12.18-23.82-15.47-8.69-3.4-19.11-4.8-28.81-5.92-10.64-1.22-24.28-1.81-33.3-7.25-3.5-2.11-2.55-3.95,2.29-4,6,0,41.72,5.44,46.48-3.17,4.9-8.84-22.5-16.29-25.77-17.59-6.19-2.24-8.33-2.93-6.39-2.39,2.31.64,8.37,2.38,18.41,5.85,38.67,13.39,75.13,32,111.54,49.66,13.74,6.67,28.86,11.74,43.7,15.64,10.37,2.72,21.06,5.94,31.95,6-.11-.32.18-.42.94-.26,1.49.31,5,2,10.68,5.16,13.12,7.43,17,11,11.68,9.89-20.33-4.11-41-9.57-60.94-15.65-2-.6-5.41-1.68-10.39-3.3,7.81,5.23,15.5,10.77,22.93,16.54,84.45,67,134.92,159.89,131.9,269-1.6,57.64-17.84,116.1-27.78,171.07-6.12,33.9-16.2,102.47,26.74,118,23.78,8.59,53.7-17.43,71-31.2,8-6.51,19-18,26.95-18.12C2399.54,1536.8,2400.35,1540.39,2398.7,1545.86Z" transform="translate(-605.1 -348.35)"/></g><g id="Layer_19" data-name="Layer 19"><path class="cls-1" d="M1096.79,2029.16c3.51,8.84-1,19-3.94,27.32-12.24,30.8-41.09,48.93-71.17,58.89-29.83,9.88-58.42,6.11-83.47-13.39-8.93-7.4-17.75-14.8-25-23.92-15.75-19.72-30.08-40.61-44.45-61.33Q853.88,1995,839.4,1973.1q-10.64-18.13-21.84-35.9c-5.27-7.63-7.88-11.45-13-19.1q-24.12-39.74-46.43-80.45-17-31.67-32.67-64c-5.11-10.64-9.35-17.77-12.86-20.74-7.28-6.14-16.36-11.25-24.66-16.5-8.89-5.63-20.23-13.47-24.82-22.9-1.83-3.76,0-4.75,4.16-2.07C710.35,1739,751.12,1728.66,784,1690c4.66-6.49,9.15-9.81,13.12-9.74,4.75.09,8.16,3.54,10.21,10.6,6.11,21.08,13.71,60.75,31.7,70.69,15.11,8.35,42.48-.78,60-6.2,22.62-7,46.26-15.89,66.51-29.33a16,16,0,0,1,4-2.76c2.76-1.3,4.5-.26,5.28,3.17,1.8,8-1.69,14-10.59,18-32.83,14.9-68.22,28.29-103.71,34.25-2.9.49-8.11,1.22-15.34,1.83,2.5,6.32,3.78,9.49,6.39,15.81,35.1,83.52,78,170,132,239.82,15.93,20.56,42.11,42.95,69.66,36.45,14.36-3.38,22.16-20.42,28.63-32.77,4.8-9.37,8.55-14.32,10.71-14.66C1094.16,2024.9,1095.64,2026.27,1096.79,2029.16Z" transform="translate(-605.1 -348.35)"/><path class="cls-1" d="M1482.55,2117.91c.62,5.72-2.9,12.79-10.41,21.25-21.36,26.59-53.28,29.69-83.27,20.88-22.46-6.59-43.64-21-58.93-39.4-18.92-22.75-31-51-40.78-78.83-13.23,40.49-36,67.38-81.7,59.22-23.65-4.22-46.16-15-65-30.15-20.17-16.23-36.53-37.09-46-61.26-37.14-95,65.36-156.11,149.28-149.22-1.85-9.15-2.77-13.72-4.56-22.86-8.6-43.65-13.5-92.66-31.29-133.9l-1.92-5.45c-13.36-31.54-42.91-55.79-78.47-45.28-18.41,5.44-35.12,19.34-44.52,35.88-6.87,12.1-13.69,28.06-11.08,42.19,1.12,6.07,9.31,6.82,23.56,2.89,23.57-6.49,36.79,13.51,41.06,33.87,2.7,12.92,1.64,27-5,38.65-6.36,11.16-17.66,18.41-29.67,21.77-14.76,4.13-31.67,3.63-45.93-2.42-13.52-5.74-23.41-18.28-27-32.17-8-30.58,7.88-61.2,23.64-86.62,22.07-35.59,55.93-63,96.68-71.78,60-12.94,132.11,20.06,171.53,66.13,30.4,35.53,42.42,83.79,47.89,129.57q11.28,93,25.33,185.71c3.28,21.37,6,43,10.88,64.1,4.52,18,12.6,48.36,32.85,53.14,13.26,3.13,23.69-9.17,32.1-18,2.36-3,4.39-4.31,6-4C1480.61,2112.32,1482.17,2114.36,1482.55,2117.91Zm-222.49-189.77q-5.82-26.76-11.39-53.58c-62.33-3.21-75.52,55.2-61.4,104.15,9.38,32.49,27.55,70.11,62.92,79.75,15.63,4.26,25.33-7.47,25.43-22.49C1275.84,2001.52,1267.49,1962.83,1260.06,1928.14Z" transform="translate(-605.1 -348.35)"/><path class="cls-1" d="M1817.67,1767.19c-2.32,16.8-10.18,33.48-20,47.49a88.44,88.44,0,0,1-35.1,29.42c-26.08,11.91-48.23,6.74-45.36-25.28,1-11,4.73-21.89,8.49-31.92,3.3-8.83,8.48-19,9-27.6.53-8.85-1.31-20.42-11.89-25.38-11.91-5.59-26.14.09-37.13,4.27-83.77,31.87-88.52,135.72-87.39,214.57.74,51.86,2.78,115.09,30.68,158.64,10.48,16.36,26.83,34.19,49.25,28,33.75-9.24,56.51-57.79,72.63-85,3.8-6.8,6.86-10.58,9.1-11.28,1.78-.57,2.26,1.47,1.29,5.9-5.17,23.84-21.22,45.9-34.32,66.31-19.71,29.16-45.52,64.75-83,70.37-45.4,6.81-81.46-26.66-107.23-59.32-37.41-47.42-60.82-108.85-65.55-168.84-4.46-56.57,5.94-112.88,50.16-152.87,42.86-38.78,101.38-54.47,154.33-74.16,33.22-12.35,75-34.58,111.53-25C1816.69,1713.26,1821.2,1741.6,1817.67,1767.19Z" transform="translate(-605.1 -348.35)"/><path class="cls-1" d="M2199.17,1967.35c-40,64.18-106.59,108.55-176.25,136.76-44.29,17.94-94.71,36.94-142.23,33.85-42.92-2.79-59-25.87-69.2-66.16-14-55.23-11.39-113.59,0-169.47,14.61-71.85,47.21-142.78,97.65-196,46.74-49.34,105.33-77.63,170.32-49,57.17,25.22,107.88,88.87,133.67,145.74C2239.14,1860.48,2232.07,1914.49,2199.17,1967.35ZM2055.94,1924c25.84-52.48,56.09-112.77,57.44-172.74.69-30.6-10.74-68-40.79-81.51-30.7-13.76-58.57,16.49-74.23,38.42-33.06,46.29-51.95,104.44-70.11,158.62-22.34,66.64-50.14,137.52-57.64,206.62-1.67,15.42-5.5,48.72,19,49.58,32,1.12,58.62-29.13,76.46-51.36C2001.75,2027.11,2030.63,1975.38,2055.94,1924Z" transform="translate(-605.1 -348.35)"/></g><g id="Layer_21" data-name="Layer 21"><path class="cls-1" d="M1414.26,2480.09c1,40.75-9,87.5-47.24,110.49-23.55,14-46.11,4.23-65.59-9.59-17.27-12.24-32.32-30.24-47.27-46.06-8.55-9.1-17.07-18.53-26.14-26.83a263.55,263.55,0,0,0-23.19-19.1,26.74,26.74,0,0,1-3.52-3.38,71.2,71.2,0,0,1-5.46-6.93c-1.62-2.31-5.82-8.48-12.53-18.47-53.78-80.18-108.47-160.49-157.75-243.53q-1.14-1.93-5.41-9.25-4-6.83-7-12.18c-4.94-8.57-7.14-12.51-12.41-21.4s-10.59-13.67-16.08-14.72-14.8,1.28-26.16,6.71c-9.58,4.58-14.39,5.79-15.87,3.83s-.29-4,3.85-6.16c42.71-22.33,86.57-42.4,131.06-60.95,2.25,3.71,3.36,5.6,5.52,9.42,27.26,60.84,48.11,124.71,74.16,186.15,14-27.41,47.34-25.33,72.52-20.21,52.11,10.6,96.39,43.75,131.71,83.17C1391.64,2394.85,1413.09,2434.24,1414.26,2480.09Zm-106.46-38.17c-12.47-52.33-36.46-140.3-99.22-152.91-16.2-3.26-36.48-.45-40,18.68-1.08,6.11,0,13.6,3.16,22.41,9.4,26.07,21.26,51.66,32.33,77.21q8.45,19.43,16.92,38.83c12.73,28.78,25.73,58.05,42,85,9.07,15,20.87,31,35,40.21,12.42,8.1,28.07,8.57,28-12.09C1325.8,2522.73,1316.67,2479.16,1307.8,2441.92Z" transform="translate(-605.1 -348.35)"/><path class="cls-1" d="M1658.18,2570.78c-1.14,3.67-5.41,10.07-12.63,19-16,19.28-34.4,39.55-59.13,47-12.78,3.82-21.33,1.58-24.74-4.91-5.85-11.14-3.52-26.79-1.88-39.3-14.87,24.13-35.08,56.9-66.57,57.79-12.78.37-23.32-8.71-29.42-19.29-8-13.94-11.23-31.59-10.61-47.62,2.57-66.36,76.6-82.87,129.09-98.86,1.19-5.5,1.79-8.25,3-13.74,5.37-25.35,13.55-53,12.77-79.16,0-1.24,0-1.86.06-3.11-.68-23.37-20.09-26.24-39.14-24.72-12.83,1-26.48,4.24-36.21,12.58-6.78,5.82-15.24,13.11-16.29,23.13-.44,4.22,4.86,7.17,15.17,7.87,14.76,1,21.48,13.29,18.69,27.1-1.79,8.87-5.57,17.33-12.22,23.76a32,32,0,0,1-23.86,9.5,40.77,40.77,0,0,1-29.25-13.36,43.5,43.5,0,0,1-11.12-30.21c.59-21.09,18-35.94,34.08-46.13,22.41-14.23,50.76-18.74,77.31-22.05,23.31-2.9,66.91-15.85,85.08,1.25,15.12,14.23,5.24,47.56,1,65.35q-15.13,57.36-31,114.55c-3.59,13-7.43,25.95-10.47,39.09-1.07,7.38-3.76,26,6.12,23.11,9.46-2.79,18.26-16.42,25.66-25.48,2.34-3,4-4.82,5-5.31C1658.4,2567.77,1658.89,2568.5,1658.18,2570.78Zm-84.78-45.5q3.52-16.09,7-32.2c-35,13.86-59.1,39.38-64.26,76.65-1.62,11.69-6.5,46.78,14.84,44.89,10.82-.95,18.09-12.62,22.17-21.72C1562.69,2571.68,1568.19,2548.08,1573.4,2525.28Z" transform="translate(-605.1 -348.35)"/><path class="cls-1" d="M1995.7,2249.73c-7.6,10.33-18.27,19.51-28.81,27.57a159.8,159.8,0,0,1-33.55,20.17c-11.75,5.06-36.1,10.86-21.36-11,5.81-8.63,14.11-17.08,22.12-24.55a26.05,26.05,0,0,0,4.85-5.07c2.09-3.52-.39-4-7.38-1.21-24.24,9.63-43.44,29.54-59.41,49.84-22,28.85-37.19,63.58-53.43,95.8q-11.7,23.19-23.53,46.32-14.51,28.22-29.21,56.34c-6.07,11.58-4.42,13.66,5,5.3,7.06-6.29,13.92-13.08,20.54-19.68,3.69-3.66,4.87-4.36,3.26-1.92a73.47,73.47,0,0,1-8.09,10c-4.33,4.56-6.49,6.78-10.8,11.13-14.79,14.94-30.34,29-46.38,42.63-7.68,6.37-15.57,12.46-23.52,18.49-8.17,6.11-16.61,12-25.19,17.5-7.73,5-11.57,7.36-19.17,11.74-3.33,1.92-7.16,4.06-11.44,6.34-3.63,1.93-5,1.37-4-1.59s3.73-5.53,8.33-8c9.66-5.24,20.4-11.74,27.06-20.16,7-8.83,11.19-21.49,15-32.5q30.76-88.27,59.13-177.35c2.46-9.18,6.76-20.21,3-27.74-1.8-3.56-11.92-3.27-24.56.6-10.08,3.09-14.79,4.36-15.87,4.39s-1.26-1.19-.59-3.65a7.45,7.45,0,0,1,5.09-5.2c3.15-1.17,6.3-2.35,9.38-3.52,4.63-1.76,7.06-2.7,12.14-4.67,47.06-18.37,91.52-44.62,136.31-67.83.82,4.9-.79,12.17-5.84,23q-6.14,13.14-12.34,26.23c16.88-20.46,34.76-40.75,56-56.3,15.2-11.15,34.88-19.79,52.38-24.66,9.54-2.65,28.56-7.33,33.8-2C2009,2229.16,2000.14,2243.69,1995.7,2249.73Z" transform="translate(-605.1 -348.35)"/></g><g id="Layer_22" data-name="Layer 22"><path class="cls-2" d="M2107.65,758.42c-62.56,56.68-175.44,81.68-198.74,88.2l-.45.13a506.77,506.77,0,0,1-151.57,18.84l-468.25-12.91a139.93,139.93,0,0,1-15.55-1.3c-26.29-3.64-12.12-2.66-66.91-8.07-80.23-8-199.83-26.32-258.78-84.59C829.88,642.49,707.23,533.41,912.09,594.16s482.54,254.49,426.77,130.25-118.58-106.56-88.17-306.26,111.72,90.71,129.43,111.38-4-24.28,13.11-76.7c18.46-56.57,63.76-95.79,96,73.68,29.9,157.85,34.45,165.79,82.92,174.82s78.27-13.52,114.49-99,203.64-319.25,217-219.08c37.11,277.51-121.14,333.08-150.11,386.71s176.67-54.24,194.09-68.53c20.89-17.14,200.32-184.22,211.28-149.65S2170.14,701.83,2107.65,758.42Z" transform="translate(-605.1 -348.35)"/></g></svg>