<svg id="contactus" xmlns="http://www.w3.org/2000/svg" viewBox="0 0 1225.62 844.72"><path d="M1594.8,842.57,1972,605,1642.73,268.73S1628,256.54,1625,246.27c0,0-34.37,38-30.17,112.35Z" transform="translate(-1594.44 -208.98)"/><path d="M2208.42,769.1v-558L1684,209s-33-1-7,26,519,529,519,529S2202.84,771.19,2208.42,769.1Z" transform="translate(-1594.44 -208.98)"/><path d="M2208.42,818.36v233.82L1750,1053s-148,19-148-141l414-264S2147,822,2208.42,818.36Z" transform="translate(-1594.44 -208.98)"/><path d="M2819.7,842.56,2442.5,605l329.27-336.27s14.78-12.19,17.76-22.46c0,0,34.37,38,30.17,112.35Z" transform="translate(-1594.44 -208.98)"/><path d="M2206.08,769.08v-558L2730.5,209s33-1,7,26-519,529-519,529S2211.66,771.17,2206.08,769.08Z" transform="translate(-1594.44 -208.98)"/><path d="M2206.08,818.34v233.82l458.42.82s148,19,148-141l-414-264S2267.5,822,2206.08,818.34Z" transform="translate(-1594.44 -208.98)"/></svg>