<?xml version="1.0" encoding="utf-8"?>
<!-- Generator: Adobe Illustrator 25.4.1, SVG Export Plug-In . SVG Version: 6.00 Build 0)  -->
<svg version="1.1" id="contactus" xmlns="http://www.w3.org/2000/svg" xmlns:xlink="http://www.w3.org/1999/xlink" x="0px" y="0px"
	 viewBox="0 0 900 900" style="enable-background:new 0 0 900 900;" xml:space="preserve">
<style type="text/css">
	.st0{fill:#23080F;}
</style>
<path class="st0" d="M0.3,675.1l277-253.1L35.5,63.6c0,0-10.9-13-13-23.9c0,0-25.2,40.5-22.2,119.7L0.3,675.1z"/>
<path class="st0" d="M450.9,596.8V2.3L65.8,0c0,0-24.2-1.1-5.1,27.7s381.1,563.6,381.1,563.6S446.8,599,450.9,596.8z"/>
<path class="st0" d="M450.9,649.3v249.1l-336.6,0.9c0,0-108.7,20.2-108.7-150.2l304-281.3C309.6,467.7,405.8,653.1,450.9,649.3z"/>
<path class="st0" d="M899.7,675l-277-253.1L864.5,63.6c0,0,10.9-13,13-23.9c0,0,25.2,40.5,22.2,119.7L899.7,675z"/>
<path class="st0" d="M449.1,596.8V2.3L834.2,0c0,0,24.2-1.1,5.1,27.7S458.3,591.3,458.3,591.3S453.3,599,449.1,596.8z"/>
<path class="st0" d="M449.1,649.2v249.1l336.6,0.9c0,0,108.7,20.2,108.7-150.2l-304-281.3C590.5,467.7,494.3,653.1,449.1,649.2z"/>
</svg>
