<svg id="followus" xmlns="http://www.w3.org/2000/svg" viewBox="0 0 1085 1085"><defs><style>.cls-1{fill:#7ba8ff;}</style></defs><path class="cls-1" d="M822,1917.34H521.3a160,160,0,0,0-160,160V2378a160,160,0,0,0,160,160H822a160,160,0,0,0,160-160V2077.3A160,160,0,0,0,822,1917.34Zm11.08,329.44a142.33,142.33,0,0,1-142.34,142.34H652.56a142.33,142.33,0,0,1-142.34-142.34v-38.22a142.33,142.33,0,0,1,142.34-142.34h38.22a142.33,142.33,0,0,1,142.34,142.34ZM874.5,2090a46.5,46.5,0,1,1,46.5-46.5A46.5,46.5,0,0,1,874.5,2090Z" transform="translate(-129 -1685)"/><path class="cls-1" d="M937,1685H406c-153,0-277,124-277,277V2493c0,153,124,277,277,277H937c153,0,277-124,277-277V1962C1214,1809,1090,1685,937,1685Zm90.12,731A166.06,166.06,0,0,1,861,2582H483A166.05,166.05,0,0,1,317,2416V2038A166.06,166.06,0,0,1,483,1871.92H861A166.07,166.07,0,0,1,1027.08,2038Z" transform="translate(-129 -1685)"/><path class="cls-1" d="M761.06,2137.67a126.18,126.18,0,1,1-89.19-36.93A125.77,125.77,0,0,1,761.06,2137.67Z" transform="translate(-129 -1685)"/></svg>