<svg id="contactus" xmlns="http://www.w3.org/2000/svg" viewBox="0 0 1330.69 954"><defs><style>.cls-1,.cls-2,.cls-3{fill:#1471ff;}.cls-2,.cls-3{stroke:#fff;stroke-miterlimit:10;}.cls-2{stroke-width:60px;}.cls-3{stroke-width:54px;}</style></defs><path class="cls-1" d="M2822,336.78v595a150.77,150.77,0,0,1-150.78,150.78H1745.58A150.77,150.77,0,0,1,1594.8,931.74v-595A150.76,150.76,0,0,1,1745.58,186h925.68A150.76,150.76,0,0,1,2822,336.78Z" transform="translate(-1543 -159)"/><path class="cls-2" d="M2843.69,895.74v31.14A156.12,156.12,0,0,1,2687.56,1083H1729.12A156.11,156.11,0,0,1,1573,926.88V895l540.91-345.09L2207.75,490l94.47,60.28Z" transform="translate(-1543 -159)"/><path class="cls-3" d="M1652.74,244.87l531,539.51a34.61,34.61,0,0,0,49.32,0l531-539.51c21.53-21.87,6-58.87-24.66-58.87h-1062C1646.71,186,1631.21,223,1652.74,244.87Z" transform="translate(-1543 -159)"/></svg>