<?xml version="1.0" encoding="utf-8"?>
<!-- Generator: Adobe Illustrator 25.4.1, SVG Export Plug-In . SVG Version: 6.00 Build 0)  -->
<svg version="1.1" id="openinghours" xmlns="http://www.w3.org/2000/svg" xmlns:xlink="http://www.w3.org/1999/xlink" x="0px"
	 y="0px" viewBox="0 0 1095 1095" style="enable-background:new 0 0 1095 1095;" xml:space="preserve">
<style type="text/css">
	.st0{fill:#FFE2CB;}
</style>
<path class="st0" d="M547.5,0C245.1,0,0,245.1,0,547.5S245.1,1095,547.5,1095S1095,849.9,1095,547.5S849.9,0,547.5,0z M548,1015
	c-257.9,0-467-209.1-467-467S290.1,81,548,81s467,209.1,467,467S805.9,1015,548,1015z"/>
<polygon class="st0" points="565,198 533,198 504,18 592,18 "/>
<polygon class="st0" points="592,1079 504,1079 533,899 568,899 "/>
<polygon class="st0" points="10,592 10,504 190,531 190,568 "/>
<polygon class="st0" points="903,565 903,529 1083,503 1083,591 "/>
<polygon class="st0" points="260,372 253,388 69.9,292.4 90.9,256.1 "/>
<polygon class="st0" points="394,258 383,264 265,81.5 301.3,60.5 "/>
<polygon class="st0" points="1023.1,793.8 1002.1,830.2 835,725 842,712 "/>
<polygon class="st0" points="842.5,997.8 806.2,1018.8 716,837 728,829 "/>
<polygon class="st0" points="264.6,1011.8 301,1032.8 384,853 374,846 "/>
<polygon class="st0" points="70,809.8 91,846.2 265,739 259,728 "/>
<polygon class="st0" points="715,258 726,264 842.6,94.9 806.3,73.9 "/>
<polygon class="st0" points="835,375 843,388 1030.2,299.9 1009.2,263.5 "/>
<circle class="st0" cx="557" cy="577" r="53"/>
<polygon class="st0" points="575.3,549.3 539.5,608.3 336.1,459.1 349.1,437.8 "/>
<polygon class="st0" points="580.3,615.6 518.6,584.7 699.8,272.1 722.2,283.2 "/>
</svg>
