<?xml version="1.0" encoding="utf-8"?>
<!-- Generator: Adobe Illustrator 25.4.1, SVG Export Plug-In . SVG Version: 6.00 Build 0)  -->
<svg version="1.1" id="findus" xmlns="http://www.w3.org/2000/svg" xmlns:xlink="http://www.w3.org/1999/xlink" x="0px" y="0px"
	 viewBox="0 0 900 900" style="enable-background:new 0 0 900 900;" xml:space="preserve">
<style type="text/css">
	.st0{fill:#FFE2CB;}
</style>
<path class="st0" d="M450,0C201.5,0,0,150.6,0,336.3c0,76.8,34.5,147.6,92.4,204.2c20.9,20.4,40.8,41.2,60.4,62.2l269.5,288.5
	c11,11.8,44.4,11.8,55.4,0l286.1-306.3c14-15,28.8-29.8,43.8-44.4c58-56.6,92.4-127.4,92.4-204.2C900,150.6,698.5,0,450,0z
	 M450,478.6c-105.1,0-190.2-58.5-190.2-130.6S344.9,217.4,450,217.4S640.2,275.8,640.2,348S555.1,478.6,450,478.6z"/>
</svg>
