<svg id="openinghours" xmlns="http://www.w3.org/2000/svg" viewBox="0 0 1095 1095"><path d="M2104.5,1703c-302.37,0-547.5,245.13-547.5,547.5S1802.13,2798,2104.5,2798,2652,2552.87,2652,2250.5,2406.87,1703,2104.5,1703Zm.5,1015c-257.92,0-467-209.08-467-467s209.08-467,467-467,467,209.08,467,467S2362.92,2718,2105,2718Z" transform="translate(-1557 -1703)"/><polygon points="565 198 533 198 504 18 592 18 565 198"/><polygon points="592 1079 504 1079 533 899 568 899 592 1079"/><polygon points="10 592 10 504 190 531 190 568 10 592"/><polygon points="903 565 903 529 1083 503 1083 591 903 565"/><polygon points="260 372 253 388 69.95 292.44 90.95 256.06 260 372"/><polygon points="394 258 383 264 264.96 81.46 301.33 60.46 394 258"/><polygon points="1023.14 793.83 1002.14 830.2 835 725 842 712 1023.14 793.83"/><polygon points="842.52 997.82 806.15 1018.82 716 837 728 829 842.52 997.82"/><polygon points="264.65 1011.82 301.02 1032.82 384 853 374 846 264.65 1011.82"/><polygon points="70.03 809.83 91.03 846.2 265 739 259 728 70.03 809.83"/><polygon points="715 258 726 264 842.64 94.88 806.26 73.88 715 258"/><polygon points="835 375 843 388 1030.25 299.87 1009.25 263.5 835 375"/><circle cx="557" cy="577" r="53"/><polygon points="575.31 549.33 539.51 608.31 336.14 459.13 349.11 437.76 575.31 549.33"/><polygon points="580.34 615.6 518.64 584.71 699.8 272.06 722.15 283.25 580.34 615.6"/></svg>