<svg id="findus" xmlns="http://www.w3.org/2000/svg" viewBox="0 0 900 900"><path d="M900,239.65c-248.54,0-450,150.56-450,336.29,0,76.81,34.45,147.58,92.43,204.2,20.86,20.38,40.8,41.21,60.39,62.19L872.3,1130.81c11,11.79,44.37,11.79,55.4,0l286.12-306.29c14-15,28.79-29.77,43.75-44.38,58-56.62,92.43-127.39,92.43-204.2C1350,390.21,1148.54,239.65,900,239.65Zm0,478.61c-105.06,0-190.22-58.48-190.22-130.62S794.94,457,900,457s190.22,58.48,190.22,130.62S1005.06,718.26,900,718.26Z" transform="translate(-450 -239.65)"/></svg>