<?xml version="1.0" encoding="utf-8"?>
<!-- Generator: Adobe Illustrator 25.4.1, SVG Export Plug-In . SVG Version: 6.00 Build 0)  -->
<svg version="1.1" id="review" xmlns="http://www.w3.org/2000/svg" xmlns:xlink="http://www.w3.org/1999/xlink" x="0px" y="0px"
	 viewBox="0 0 1881.5 328.4" style="enable-background:new 0 0 1881.5 328.4;" xml:space="preserve">
<style type="text/css">
	.st0{fill:#FFE2CB;}
</style>
<polygon class="st0" points="173,6.8 219.5,132 339.1,127.5 236.5,208 275.7,322.9 173.5,249 70.3,322.9 116.5,202 6.8,127.5 
	140.5,132 "/>
<polygon class="st0" points="1709.2,6.7 1755.7,131.9 1875.4,127.4 1772.7,207.9 1811.9,322.7 1709.7,248.9 1606.6,322.7 
	1652.7,201.9 1543.1,127.4 1676.7,131.9 "/>
<polygon class="st0" points="1322.2,6.7 1368.7,131.9 1488.4,127.4 1385.7,207.9 1424.9,322.7 1322.7,248.9 1219.6,322.7 
	1265.7,201.9 1156.1,127.4 1289.7,131.9 "/>
<polygon class="st0" points="941.2,6.7 987.7,131.9 1107.4,127.4 1004.7,207.9 1043.9,322.7 941.7,248.9 838.5,322.7 884.7,201.9 
	775.1,127.4 908.7,131.9 "/>
<polygon class="st0" points="557.2,6.7 603.7,131.9 723.4,127.4 620.7,207.9 659.9,322.7 557.7,248.9 454.6,322.7 500.7,201.9 
	391.1,127.4 524.7,131.9 "/>
</svg>
