<svg id="review" xmlns="http://www.w3.org/2000/svg" viewBox="0 0 1881.48 328.35"><defs><style>.cls-1{stroke:#000;stroke-miterlimit:10;stroke-width:4px;}</style></defs><polygon class="cls-1" points="172.99 6.83 219.49 132.03 339.14 127.54 236.49 208.03 275.68 322.86 173.49 249.03 70.31 322.86 116.49 202.03 6.84 127.54 140.49 132.03 172.99 6.83"/><polygon class="cls-1" points="1709.24 6.66 1755.74 131.86 1875.39 127.37 1772.74 207.86 1811.93 322.69 1709.74 248.86 1606.56 322.69 1652.74 201.86 1543.09 127.37 1676.74 131.86 1709.24 6.66"/><polygon class="cls-1" points="1322.24 6.66 1368.74 131.86 1488.39 127.37 1385.74 207.86 1424.93 322.69 1322.74 248.86 1219.56 322.69 1265.74 201.86 1156.09 127.37 1289.74 131.86 1322.24 6.66"/><polygon class="cls-1" points="941.24 6.66 987.74 131.86 1107.39 127.37 1004.74 207.86 1043.93 322.69 941.74 248.86 838.55 322.69 884.74 201.86 775.09 127.37 908.74 131.86 941.24 6.66"/><polygon class="cls-1" points="557.24 6.66 603.74 131.86 723.39 127.37 620.74 207.86 659.93 322.69 557.74 248.86 454.56 322.69 500.74 201.86 391.09 127.37 524.74 131.86 557.24 6.66"/></svg>