<svg id="contactus" xmlns="http://www.w3.org/2000/svg" viewBox="0 0 900 900"><path d="M1626,846.41l277-253.12L1661.18,235s-10.86-13-13-23.93c0,0-25.24,40.46-22.16,119.71Z" transform="translate(-1625.72 -171.35)"/><path d="M2076.58,768.12V173.62l-385.09-2.25s-24.24-1.06-5.14,27.71,381.11,563.61,381.11,563.61S2072.48,770.36,2076.58,768.12Z" transform="translate(-1625.72 -171.35)"/><path d="M2076.58,820.61v249.12l-336.63.87s-108.68,20.25-108.68-150.22l304-281.28S2031.48,824.49,2076.58,820.61Z" transform="translate(-1625.72 -171.35)"/><path d="M2525.46,846.39l-277-253.12L2490.26,235s10.86-13,13-23.93c0,0,25.25,40.46,22.16,119.71Z" transform="translate(-1625.72 -171.35)"/><path d="M2074.86,768.1V173.61l385.1-2.26s24.23-1.06,5.14,27.71S2084,762.67,2084,762.67,2079,770.34,2074.86,768.1Z" transform="translate(-1625.72 -171.35)"/><path d="M2074.86,820.59v249.12l336.63.87s108.68,20.25,108.68-150.22l-304-281.28S2120,824.47,2074.86,820.59Z" transform="translate(-1625.72 -171.35)"/></svg>